HIERARCHY
ROOT Hips
{
    OFFSET   0.000000   0.000000   0.000000
    CHANNELS 6 Xposition Yposition Zposition Zrotation Xrotation Yrotation
    JOINT Chest
    {
        OFFSET   0.000000   8.007230   0.000000
        CHANNELS 3 Zrotation Xrotation Yrotation
        JOINT Chest2
        {
            OFFSET   0.000000  22.077100   0.000000
            CHANNELS 3 Zrotation Xrotation Yrotation
            JOINT Neck
            {
                OFFSET   0.000000  23.255100   0.000000
                CHANNELS 3 Zrotation Xrotation Yrotation
                JOINT Head
                {
                    OFFSET   0.000000  14.370100   1.956600
                    CHANNELS 3 Zrotation Xrotation Yrotation
                    End Site
                    {
                        OFFSET   0.000000  19.566000   0.000000
                    }
                }
            }
            JOINT LeftCollar
            {
                OFFSET   3.911900  19.017000  -0.467063
                CHANNELS 3 Zrotation Xrotation Yrotation
                JOINT LeftShoulder
                {
                    OFFSET  10.383700   0.000000   0.000000
                    CHANNELS 3 Zrotation Xrotation Yrotation
                    JOINT LeftElbow
                    {
                        OFFSET  26.662100   0.001193   0.000980
                        CHANNELS 3 Zrotation Xrotation Yrotation
                        JOINT LeftWrist
                        {
                            OFFSET  28.869000  -0.000059  -0.000082
                            CHANNELS 3 Zrotation Xrotation Yrotation
                            JOINT LeftFinger0
                            {
                                OFFSET   2.044650  -2.323450   3.252850
                                CHANNELS 3 Zrotation Xrotation Yrotation
                                JOINT LeftFinger01
                                {
                                    OFFSET   3.088130   0.000000   0.000000
                                    CHANNELS 3 Zrotation Xrotation Yrotation
                                    JOINT LeftFinger02
                                    {
                                        OFFSET   2.639460   0.000000   0.000000
                                        CHANNELS 3 Zrotation Xrotation Yrotation
                                        End Site
                                        {
                                            OFFSET   2.582190   0.000000   0.000000
                                        }
                                    }
                                }
                            }
                            JOINT LeftFinger1
                            {
                                OFFSET   8.364480   0.000000   3.252850
                                CHANNELS 3 Zrotation Xrotation Yrotation
                                JOINT LeftFinger11
                                {
                                    OFFSET   4.646930   0.000000   0.000000
                                    CHANNELS 3 Zrotation Xrotation Yrotation
                                    JOINT LeftFinger12
                                    {
                                        OFFSET   2.323470   0.000000   0.000000
                                        CHANNELS 3 Zrotation Xrotation Yrotation
                                        End Site
                                        {
                                            OFFSET   2.273050   0.000000   0.000000
                                        }
                                    }
                                }
                            }
                            JOINT LeftFinger2
                            {
                                OFFSET   8.364490   0.000016   1.078090
                                CHANNELS 3 Zrotation Xrotation Yrotation
                                JOINT LeftFinger21
                                {
                                    OFFSET   5.111610   0.000000   0.000000
                                    CHANNELS 3 Zrotation Xrotation Yrotation
                                    JOINT LeftFinger22
                                    {
                                        OFFSET   2.788150   0.000016   0.000000
                                        CHANNELS 3 Zrotation Xrotation Yrotation
                                        End Site
                                        {
                                            OFFSET   2.727660   0.000000   0.000000
                                        }
                                    }
                                }
                            }
                            JOINT LeftFinger3
                            {
                                OFFSET   7.899780   0.000015  -1.078090
                                CHANNELS 3 Zrotation Xrotation Yrotation
                                JOINT LeftFinger31
                                {
                                    OFFSET   4.646930   0.000000   0.000000
                                    CHANNELS 3 Zrotation Xrotation Yrotation
                                    JOINT LeftFinger32
                                    {
                                        OFFSET   2.323470   0.000000   0.000000
                                        CHANNELS 3 Zrotation Xrotation Yrotation
                                        End Site
                                        {
                                            OFFSET   2.273050   0.000000   0.000000
                                        }
                                    }
                                }
                            }
                            JOINT LeftFinger4
                            {
                                OFFSET   7.435090   0.000000  -3.252850
                                CHANNELS 3 Zrotation Xrotation Yrotation
                                JOINT LeftFinger41
                                {
                                    OFFSET   3.717550   0.000000   0.000000
                                    CHANNELS 3 Zrotation Xrotation Yrotation
                                    JOINT LeftFinger42
                                    {
                                        OFFSET   1.858770   0.000000   0.000000
                                        CHANNELS 3 Zrotation Xrotation Yrotation
                                        End Site
                                        {
                                            OFFSET   1.818440   0.000000   0.000000
                                        }
                                    }
                                }
                            }
                        }
                    }
                }
            }
            JOINT RightCollar
            {
                OFFSET  -3.911910  19.017000  -0.467062
                CHANNELS 3 Zrotation Xrotation Yrotation
                JOINT RightShoulder
                {
                    OFFSET -10.383700   0.000014   0.000000
                    CHANNELS 3 Zrotation Xrotation Yrotation
                    JOINT RightElbow
                    {
                        OFFSET -26.662100   0.001225   0.001091
                        CHANNELS 3 Zrotation Xrotation Yrotation
                        JOINT RightWrist
                        {
                            OFFSET -28.869000  -0.000020  -0.000085
                            CHANNELS 3 Zrotation Xrotation Yrotation
                            JOINT RightFinger0
                            {
                                OFFSET  -2.044650  -2.323490   3.252850
                                CHANNELS 3 Zrotation Xrotation Yrotation
                                JOINT RightFinger01
                                {
                                    OFFSET  -3.088130   0.000000   0.000000
                                    CHANNELS 3 Zrotation Xrotation Yrotation
                                    JOINT RightFinger02
                                    {
                                        OFFSET  -2.639460   0.000000   0.000000
                                        CHANNELS 3 Zrotation Xrotation Yrotation
                                        End Site
                                        {
                                            OFFSET  -2.582190   0.000000   0.000000
                                        }
                                    }
                                }
                            }
                            JOINT RightFinger1
                            {
                                OFFSET  -8.364480   0.000000   3.252850
                                CHANNELS 3 Zrotation Xrotation Yrotation
                                JOINT RightFinger11
                                {
                                    OFFSET  -4.646930   0.000000   0.000000
                                    CHANNELS 3 Zrotation Xrotation Yrotation
                                    JOINT RightFinger12
                                    {
                                        OFFSET  -2.323470   0.000000   0.000000
                                        CHANNELS 3 Zrotation Xrotation Yrotation
                                        End Site
                                        {
                                            OFFSET  -2.273050   0.000000   0.000000
                                        }
                                    }
                                }
                            }
                            JOINT RightFinger2
                            {
                                OFFSET  -8.364480   0.000000   1.078090
                                CHANNELS 3 Zrotation Xrotation Yrotation
                                JOINT RightFinger21
                                {
                                    OFFSET  -5.111620   0.000000   0.000000
                                    CHANNELS 3 Zrotation Xrotation Yrotation
                                    JOINT RightFinger22
                                    {
                                        OFFSET  -2.788160   0.000000   0.000000
                                        CHANNELS 3 Zrotation Xrotation Yrotation
                                        End Site
                                        {
                                            OFFSET  -2.727660   0.000000   0.000000
                                        }
                                    }
                                }
                            }
                            JOINT RightFinger3
                            {
                                OFFSET  -7.899780   0.000000  -1.078090
                                CHANNELS 3 Zrotation Xrotation Yrotation
                                JOINT RightFinger31
                                {
                                    OFFSET  -4.646930   0.000000   0.000000
                                    CHANNELS 3 Zrotation Xrotation Yrotation
                                    JOINT RightFinger32
                                    {
                                        OFFSET  -2.323470   0.000000   0.000000
                                        CHANNELS 3 Zrotation Xrotation Yrotation
                                        End Site
                                        {
                                            OFFSET  -2.273050   0.000000   0.000000
                                        }
                                    }
                                }
                            }
                            JOINT RightFinger4
                            {
                                OFFSET  -7.435090   0.000000  -3.252850
                                CHANNELS 3 Zrotation Xrotation Yrotation
                                JOINT RightFinger41
                                {
                                    OFFSET  -3.717550   0.000000   0.000000
                                    CHANNELS 3 Zrotation Xrotation Yrotation
                                    JOINT RightFinger42
                                    {
                                        OFFSET  -1.858760   0.000000   0.000000
                                        CHANNELS 3 Zrotation Xrotation Yrotation
                                        End Site
                                        {
                                            OFFSET  -1.818440   0.000000   0.000000
                                        }
                                    }
                                }
                            }
                        }
                    }
                }
            }
        }
    }
    JOINT LeftHip
    {
        OFFSET   9.783030   0.000000   0.000000
        CHANNELS 3 Zrotation Xrotation Yrotation
        JOINT LeftKnee
        {
            OFFSET   0.000063 -41.789100   0.000608
            CHANNELS 3 Zrotation Xrotation Yrotation
            JOINT LeftAnkle
            {
                OFFSET   0.000048 -41.133200  -0.000184
                CHANNELS 3 Zrotation Xrotation Yrotation
                JOINT LeftToe
                {
                    OFFSET   0.000000  -6.358960  14.674500
                    CHANNELS 3 Zrotation Xrotation Yrotation
                    End Site
                    {
                        OFFSET   0.000000   0.000000   3.913200
                    }
                }
            }
        }
    }
    JOINT RightHip
    {
        OFFSET  -9.783030   0.000000   0.000000
        CHANNELS 3 Zrotation Xrotation Yrotation
        JOINT RightKnee
        {
            OFFSET   0.000071 -41.789100   0.001239
            CHANNELS 3 Zrotation Xrotation Yrotation
            JOINT RightAnkle
            {
                OFFSET   0.000037 -41.133200  -0.000166
                CHANNELS 3 Zrotation Xrotation Yrotation
                JOINT RightToe
                {
                    OFFSET   0.000000  -6.358960  14.674500
                    CHANNELS 3 Zrotation Xrotation Yrotation
                    End Site
                    {
                        OFFSET   0.000000   0.000000   3.913200
                    }
                }
            }
        }
    }
}
MOTION
Frames: 4
Frame Time:   0.016667
 -0.771354  90.004300  -2.001860  -0.732450  -4.285220  -2.111270   0.285700   3.784560  -0.787416   0.625683   7.564760  -1.599010   1.703930  -0.710579   0.017987   2.800600  -1.437170   4.858030  -7.276810  -2.644100   6.667570 -70.473300  21.675600   1.674960  -4.935820 -11.030100 -12.607400  13.509200  -5.908740   6.244610  36.919200  30.911500 -74.136200 -13.062800   0.005624   0.010817  -1.531400   0.008477   0.005952 -25.857800   6.809080 -13.739000 -21.838200  -0.004222  -0.004734 -15.274000  -0.004693  -0.006801 -27.751900   0.781513  -1.485400 -30.526300  -0.012881   0.009972 -20.330500  -0.004004   0.001920 -23.960300   0.682033  -1.533610 -23.969200  -0.000558   0.001074 -15.969900  -0.007418   0.000789 -26.720900   0.755118  -1.498980 -40.111100   0.001921   0.002173 -26.703100  -0.005415   0.000000  11.870100   1.489920   9.939250  66.900700  10.659800  -3.380650   4.234390  -9.339420   7.937240 -17.988600 -22.393700   3.505890 -40.245700  31.858600  70.725600  24.987100   0.009075  -0.004186   7.485380   0.000579   0.001897  27.101800   2.023530   3.946020  22.230500  -0.009668   0.007248  15.573200  -0.000186   0.008973  26.397700  -0.996570  -2.006850  26.415100  -0.001765   0.006179  17.595500  -0.004188   0.004267  28.169500  -1.058160  -1.975070  33.315600  -0.001287   0.006556  22.188200   0.004346   0.006187  37.708800  -1.370890  -1.772400  56.594900   0.004524   0.003880  37.692200   0.007925   0.002806   0.509749   4.159190   2.907730   0.689785   2.289660  12.431700  -4.840240  -3.762360   5.202230  -0.000000   0.000000   0.000000   1.500620   4.005000 -10.095200  -0.318494   2.886660  -6.340280  -9.314200   0.402467   0.857670  -0.000000   0.000000   0.000000
 -0.785458  90.004300  -2.016460  -0.733930  -4.299840  -2.123420   0.285520   3.793880  -0.785784   0.625331   7.583420  -1.595780   1.722980  -0.694904   0.018012   2.831850  -1.405450   4.845920  -7.277140  -2.654340   6.657020 -70.473800  21.688800   1.675110  -4.935000 -11.030700 -12.601900  13.500300  -5.901780   6.244540  36.912500  30.905300 -74.133000 -13.064300   0.005614   0.010821  -1.532180   0.008482   0.005955 -25.855700   6.812210 -13.749800 -21.832000  -0.004218  -0.004734 -15.273600  -0.004698  -0.006800 -27.751700   0.786272  -1.494550 -30.517800  -0.012887   0.009976 -20.324900  -0.004006   0.001924 -23.960100   0.686082  -1.543100 -23.969200  -0.000549   0.001079 -15.970000  -0.007417   0.000792 -26.720200   0.759658  -1.508240 -40.105600   0.001922   0.002177 -26.702600  -0.005421   0.000000  11.881600   1.471830   9.931250  66.897200  10.665600  -3.389640   4.235820  -9.339250   7.944560 -17.996100 -22.392900   3.501600 -40.251200  31.866900  70.740400  24.986600   0.009073  -0.004166   7.487830   0.000579   0.001894  27.104400   2.029440   3.957320  22.233400  -0.009666   0.007247  15.573200  -0.000185   0.008971  26.395100  -0.995602  -2.005130  26.412600  -0.001762   0.006174  17.595500  -0.004187   0.004264  28.169500  -1.057180  -1.973360  33.304100  -0.001281   0.006554  22.180500   0.004346   0.006178  37.704500  -1.369520  -1.770980  56.587900   0.004523   0.003869  37.687800   0.007923   0.002803   0.516428   4.158720   2.907920   0.689426   2.309540  12.440200  -4.845360  -3.762330   5.205940   0.000000   0.000000   0.000000   1.505490   3.999460 -10.089000  -0.317520   2.897670  -6.340100  -9.320040   0.402394   0.863282   0.000000   0.000000   0.000000
 -0.808971  90.004400  -2.040800  -0.736326  -4.323860  -2.142980   0.285369   3.808280  -0.783561   0.625113   7.612230  -1.591470   1.753890  -0.665554   0.018036   2.882530  -1.346080   4.820360  -7.278610  -2.669450   6.644740 -70.474500  21.712000   1.675380  -4.933640 -11.033500 -12.591200  13.491500  -5.894820   6.244480  36.904300  30.895100 -74.126900 -13.065900   0.005604   0.010825  -1.532960   0.008486   0.005957 -25.851600   6.819060 -13.769000 -21.825700  -0.004206  -0.004734 -15.273200  -0.004702  -0.006796 -27.751300   0.794845  -1.510940 -30.509400  -0.012902   0.009987 -20.319300  -0.004012   0.001936 -23.959700   0.693461  -1.560070 -23.969200  -0.000527   0.001092 -15.970100  -0.007413   0.000802 -26.719200   0.767877  -1.524820 -40.100100   0.001924   0.002188 -26.702000  -0.005436  -0.000000  11.898200   1.445230   9.921390  66.892100  10.680100  -3.402510   4.237260  -9.339070   7.951880 -18.008800 -22.392200   3.493130 -40.255800  31.878400  70.760800  24.986200   0.009072  -0.004137   7.493090   0.000578   0.001890  27.109400   2.035350   3.968620  22.238200  -0.009664   0.007242  15.573300  -0.000179   0.008967  26.392600  -0.994634  -2.003410  26.410000  -0.001754   0.006163  17.595500  -0.004185   0.004256  28.169400  -1.056190  -1.971660  33.292500  -0.001265   0.006545  22.172800   0.004346   0.006157  37.698300  -1.368140  -1.769550  56.579100   0.004518   0.003842  37.681600   0.007913   0.002794   0.527305   4.155450   2.908110   0.690376   2.346940  12.453400  -4.854520  -3.762220   5.212610   0.000000   0.000000   0.000000   1.515560   3.990410 -10.079700  -0.317006   2.917390  -6.339970  -9.330730   0.401883   0.872492  -0.000000   0.000000   0.000000
 -0.827626  90.004500  -2.060510  -0.738288  -4.341170  -2.160450   0.286744   3.816630  -0.782822   0.628012   7.628930  -1.590210   1.776190  -0.634975   0.018034   2.919030  -1.284330   4.786880  -7.282140  -2.676850   6.642740 -70.479200  21.730900   1.670940  -4.932930 -11.041900 -12.578800  13.493500  -5.899570   6.241210  36.905200  30.885300 -74.118700 -13.061800   0.005610   0.010812  -1.530910   0.008486   0.005956 -25.849500   6.830860 -13.792100 -21.826700  -0.004185  -0.004733 -15.276000  -0.004699  -0.006790 -27.750900   0.805340  -1.530790 -30.516000  -0.012927   0.010005 -20.323700  -0.004020   0.001955 -23.963900   0.702729  -1.580520 -23.973700  -0.000490   0.001113 -15.970300  -0.007408   0.000816 -26.723700   0.778055  -1.544830 -40.103900   0.001929   0.002206 -26.707000  -0.005460   0.000038  11.905900   1.432060   9.919400  66.889500  10.702200  -3.408970   4.235920  -9.339750   7.949440 -18.020000 -22.398400   3.482080 -40.248500  31.880500  70.764600  25.000900   0.009075  -0.004122   7.501890   0.000571   0.001893  27.113900   2.034910   3.966900  22.241900  -0.009664   0.007225  15.572900  -0.000167   0.008965  26.395600  -0.995254  -2.004270  26.413100  -0.001740   0.006142  17.595100  -0.004177   0.004242  28.169200  -1.056720  -1.972570  33.297300  -0.001241   0.006524  22.176000   0.004346   0.006125  37.694900  -1.368760  -1.770400  56.577300   0.004504   0.003799  37.678500   0.007892   0.002778   0.535889   4.140020   2.907610   0.694607   2.387420  12.462500  -4.863230  -3.761550   5.219990  -0.000000   0.000000   0.000000   1.527460   3.981870 -10.074500  -0.319554   2.937000  -6.340130  -9.341490   0.399960   0.880041   0.000000   0.000000   0.000000
